<!-- gerado por desenhar-figuras.py a partir de circuito 'placa-6-estrela'; não editar à mão -->
<svg xmlns="http://www.w3.org/2000/svg" viewBox="0 0 228 184" width="300" height="242.1" font-family="Arial, Helvetica, sans-serif">
<rect x="0" y="0" width="228" height="184" fill="#fff"/>
<rect x="34" y="48" width="160" height="102" fill="none" stroke="#16232E" stroke-width="2"/>
<polyline points="70,18 70,59" fill="none" stroke="#16232E" stroke-width="2" stroke-linecap="round" stroke-linejoin="round"/>
<text x="70" y="14" font-size="12" fill="#16232E" text-anchor="middle" font-weight="bold">L1</text>
<polyline points="114,18 114,59" fill="none" stroke="#16232E" stroke-width="2" stroke-linecap="round" stroke-linejoin="round"/>
<text x="114" y="14" font-size="12" fill="#16232E" text-anchor="middle" font-weight="bold">L2</text>
<polyline points="158,18 158,59" fill="none" stroke="#16232E" stroke-width="2" stroke-linecap="round" stroke-linejoin="round"/>
<text x="158" y="14" font-size="12" fill="#16232E" text-anchor="middle" font-weight="bold">L3</text>
<polyline points="81,114 103,114" fill="none" stroke="#16232E" stroke-width="2.5" stroke-linecap="round" stroke-linejoin="round"/>
<polyline points="125,114 147,114" fill="none" stroke="#16232E" stroke-width="2.5" stroke-linecap="round" stroke-linejoin="round"/>
<circle cx="70" cy="70" r="11" fill="#fff" stroke="#16232E" stroke-width="2"/>
<text x="70" y="74" font-size="11" fill="#16232E" text-anchor="middle" font-weight="bold">1</text>
<circle cx="114" cy="70" r="11" fill="#fff" stroke="#16232E" stroke-width="2"/>
<text x="114" y="74" font-size="11" fill="#16232E" text-anchor="middle" font-weight="bold">2</text>
<circle cx="158" cy="70" r="11" fill="#fff" stroke="#16232E" stroke-width="2"/>
<text x="158" y="74" font-size="11" fill="#16232E" text-anchor="middle" font-weight="bold">3</text>
<circle cx="70" cy="114" r="11" fill="#fff" stroke="#16232E" stroke-width="2"/>
<text x="70" y="118" font-size="11" fill="#16232E" text-anchor="middle" font-weight="bold">4</text>
<circle cx="114" cy="114" r="11" fill="#fff" stroke="#16232E" stroke-width="2"/>
<text x="114" y="118" font-size="11" fill="#16232E" text-anchor="middle" font-weight="bold">5</text>
<circle cx="158" cy="114" r="11" fill="#fff" stroke="#16232E" stroke-width="2"/>
<text x="158" y="118" font-size="11" fill="#16232E" text-anchor="middle" font-weight="bold">6</text>
</svg>
