<!-- gerado por desenhar-figuras.py a partir de circuito 'comp-forca'; não editar à mão -->
<svg xmlns="http://www.w3.org/2000/svg" viewBox="0 0 360 440" width="360" height="440" font-family="Arial, Helvetica, sans-serif">
<rect x="0" y="0" width="360" height="440" fill="#fff"/>
<rect x="204" y="314" width="114.4" height="61" rx="6" fill="#DCE7F0"/>
<polyline points="50,30 330,30" fill="none" stroke="#16232E" stroke-width="2" stroke-linecap="round" stroke-linejoin="round"/>
<text x="45" y="34" font-size="12" fill="#16232E" text-anchor="end" font-weight="bold">L1</text>
<polyline points="50,46 330,46" fill="none" stroke="#16232E" stroke-width="2" stroke-linecap="round" stroke-linejoin="round"/>
<text x="45" y="50" font-size="12" fill="#16232E" text-anchor="end" font-weight="bold">L2</text>
<polyline points="50,62 330,62" fill="none" stroke="#16232E" stroke-width="2" stroke-linecap="round" stroke-linejoin="round"/>
<text x="45" y="66" font-size="12" fill="#16232E" text-anchor="end" font-weight="bold">L3</text>
<polyline points="90,30 90,80" fill="none" stroke="#16232E" stroke-width="2" stroke-linecap="round" stroke-linejoin="round"/>
<circle cx="90" cy="30" r="3" fill="#16232E"/>
<polyline points="116,46 116,80" fill="none" stroke="#16232E" stroke-width="2" stroke-linecap="round" stroke-linejoin="round"/>
<circle cx="116" cy="46" r="3" fill="#16232E"/>
<polyline points="142,62 142,80" fill="none" stroke="#16232E" stroke-width="2" stroke-linecap="round" stroke-linejoin="round"/>
<circle cx="142" cy="62" r="3" fill="#16232E"/>
<polyline points="90,80 90,120" fill="none" stroke="#16232E" stroke-width="2" stroke-linecap="round" stroke-linejoin="round"/>
<rect x="85" y="89" width="10" height="22" fill="#fff" stroke="#16232E" stroke-width="2"/>
<polyline points="90,89 90,111" fill="none" stroke="#16232E" stroke-width="2" stroke-linecap="round" stroke-linejoin="round"/>
<polyline points="116,80 116,120" fill="none" stroke="#16232E" stroke-width="2" stroke-linecap="round" stroke-linejoin="round"/>
<rect x="111" y="89" width="10" height="22" fill="#fff" stroke="#16232E" stroke-width="2"/>
<polyline points="116,89 116,111" fill="none" stroke="#16232E" stroke-width="2" stroke-linecap="round" stroke-linejoin="round"/>
<polyline points="142,80 142,120" fill="none" stroke="#16232E" stroke-width="2" stroke-linecap="round" stroke-linejoin="round"/>
<rect x="137" y="89" width="10" height="22" fill="#fff" stroke="#16232E" stroke-width="2"/>
<polyline points="142,89 142,111" fill="none" stroke="#16232E" stroke-width="2" stroke-linecap="round" stroke-linejoin="round"/>
<text x="74" y="104" font-size="12" fill="#16232E" text-anchor="end" font-weight="bold">F10</text>
<polyline points="90,120 90,164" fill="none" stroke="#16232E" stroke-width="2" stroke-linecap="round" stroke-linejoin="round"/>
<polyline points="90,132 220,132 220,164" fill="none" stroke="#16232E" stroke-width="2" stroke-linecap="round" stroke-linejoin="round"/>
<circle cx="90" cy="132" r="3" fill="#16232E"/>
<polyline points="116,120 116,164" fill="none" stroke="#16232E" stroke-width="2" stroke-linecap="round" stroke-linejoin="round"/>
<polyline points="116,140 250,140 250,164" fill="none" stroke="#16232E" stroke-width="2" stroke-linecap="round" stroke-linejoin="round"/>
<circle cx="116" cy="140" r="3" fill="#16232E"/>
<polyline points="142,120 142,164" fill="none" stroke="#16232E" stroke-width="2" stroke-linecap="round" stroke-linejoin="round"/>
<polyline points="142,148 280,148 280,164" fill="none" stroke="#16232E" stroke-width="2" stroke-linecap="round" stroke-linejoin="round"/>
<circle cx="142" cy="148" r="3" fill="#16232E"/>
<polyline points="90,164 90,177" fill="none" stroke="#16232E" stroke-width="2" stroke-linecap="round" stroke-linejoin="round"/>
<polyline points="90,204 90,191" fill="none" stroke="#16232E" stroke-width="2" stroke-linecap="round" stroke-linejoin="round"/>
<polyline points="90,191 80,175" fill="none" stroke="#16232E" stroke-width="2" stroke-linecap="round" stroke-linejoin="round"/>
<text x="96" y="173" font-size="10" fill="#16232E" text-anchor="start">1</text>
<text x="96" y="202" font-size="10" fill="#16232E" text-anchor="start">2</text>
<polyline points="116,164 116,177" fill="none" stroke="#16232E" stroke-width="2" stroke-linecap="round" stroke-linejoin="round"/>
<polyline points="116,204 116,191" fill="none" stroke="#16232E" stroke-width="2" stroke-linecap="round" stroke-linejoin="round"/>
<polyline points="116,191 106,175" fill="none" stroke="#16232E" stroke-width="2" stroke-linecap="round" stroke-linejoin="round"/>
<text x="122" y="173" font-size="10" fill="#16232E" text-anchor="start">3</text>
<text x="122" y="202" font-size="10" fill="#16232E" text-anchor="start">4</text>
<polyline points="142,164 142,177" fill="none" stroke="#16232E" stroke-width="2" stroke-linecap="round" stroke-linejoin="round"/>
<polyline points="142,204 142,191" fill="none" stroke="#16232E" stroke-width="2" stroke-linecap="round" stroke-linejoin="round"/>
<polyline points="142,191 132,175" fill="none" stroke="#16232E" stroke-width="2" stroke-linecap="round" stroke-linejoin="round"/>
<text x="148" y="173" font-size="10" fill="#16232E" text-anchor="start">5</text>
<text x="148" y="202" font-size="10" fill="#16232E" text-anchor="start">6</text>
<polyline points="85,183 137,183" fill="none" stroke="#16232E" stroke-width="1.5" stroke-linecap="round" stroke-linejoin="round" stroke-dasharray="3,3"/>
<text x="74" y="188" font-size="12" fill="#16232E" text-anchor="end" font-weight="bold">K1</text>
<polyline points="220,164 220,177" fill="none" stroke="#16232E" stroke-width="2" stroke-linecap="round" stroke-linejoin="round"/>
<polyline points="220,204 220,191" fill="none" stroke="#16232E" stroke-width="2" stroke-linecap="round" stroke-linejoin="round"/>
<polyline points="220,191 210,175" fill="none" stroke="#16232E" stroke-width="2" stroke-linecap="round" stroke-linejoin="round"/>
<text x="226" y="173" font-size="10" fill="#16232E" text-anchor="start">1</text>
<text x="226" y="202" font-size="10" fill="#16232E" text-anchor="start">2</text>
<polyline points="250,164 250,177" fill="none" stroke="#16232E" stroke-width="2" stroke-linecap="round" stroke-linejoin="round"/>
<polyline points="250,204 250,191" fill="none" stroke="#16232E" stroke-width="2" stroke-linecap="round" stroke-linejoin="round"/>
<polyline points="250,191 240,175" fill="none" stroke="#16232E" stroke-width="2" stroke-linecap="round" stroke-linejoin="round"/>
<text x="256" y="173" font-size="10" fill="#16232E" text-anchor="start">3</text>
<text x="256" y="202" font-size="10" fill="#16232E" text-anchor="start">4</text>
<polyline points="280,164 280,177" fill="none" stroke="#16232E" stroke-width="2" stroke-linecap="round" stroke-linejoin="round"/>
<polyline points="280,204 280,191" fill="none" stroke="#16232E" stroke-width="2" stroke-linecap="round" stroke-linejoin="round"/>
<polyline points="280,191 270,175" fill="none" stroke="#16232E" stroke-width="2" stroke-linecap="round" stroke-linejoin="round"/>
<text x="286" y="173" font-size="10" fill="#16232E" text-anchor="start">5</text>
<text x="286" y="202" font-size="10" fill="#16232E" text-anchor="start">6</text>
<polyline points="215,183 275,183" fill="none" stroke="#16232E" stroke-width="1.5" stroke-linecap="round" stroke-linejoin="round" stroke-dasharray="3,3"/>
<text x="298" y="188" font-size="12" fill="#16232E" text-anchor="start" font-weight="bold">K2</text>
<polyline points="90,204 90,214" fill="none" stroke="#16232E" stroke-width="2" stroke-linecap="round" stroke-linejoin="round"/>
<polyline points="116,204 116,214" fill="none" stroke="#16232E" stroke-width="2" stroke-linecap="round" stroke-linejoin="round"/>
<polyline points="142,204 142,214" fill="none" stroke="#16232E" stroke-width="2" stroke-linecap="round" stroke-linejoin="round"/>
<polyline points="90,214 90,224" fill="none" stroke="#16232E" stroke-width="2" stroke-linecap="round" stroke-linejoin="round"/>
<rect x="82" y="224" width="16" height="20" fill="none" stroke="#16232E" stroke-width="2"/>
<polyline points="90,224 90,228 86,228 86,240 90,240 90,244" fill="none" stroke="#16232E" stroke-width="2" stroke-linecap="round" stroke-linejoin="round"/>
<polyline points="90,244 90,254" fill="none" stroke="#16232E" stroke-width="2" stroke-linecap="round" stroke-linejoin="round"/>
<text x="101" y="223" font-size="10" fill="#16232E" text-anchor="start">1</text>
<text x="101" y="252" font-size="10" fill="#16232E" text-anchor="start">2</text>
<polyline points="116,214 116,224" fill="none" stroke="#16232E" stroke-width="2" stroke-linecap="round" stroke-linejoin="round"/>
<rect x="108" y="224" width="16" height="20" fill="none" stroke="#16232E" stroke-width="2"/>
<polyline points="116,224 116,228 112,228 112,240 116,240 116,244" fill="none" stroke="#16232E" stroke-width="2" stroke-linecap="round" stroke-linejoin="round"/>
<polyline points="116,244 116,254" fill="none" stroke="#16232E" stroke-width="2" stroke-linecap="round" stroke-linejoin="round"/>
<text x="127" y="223" font-size="10" fill="#16232E" text-anchor="start">3</text>
<text x="127" y="252" font-size="10" fill="#16232E" text-anchor="start">4</text>
<polyline points="142,214 142,224" fill="none" stroke="#16232E" stroke-width="2" stroke-linecap="round" stroke-linejoin="round"/>
<rect x="134" y="224" width="16" height="20" fill="none" stroke="#16232E" stroke-width="2"/>
<polyline points="142,224 142,228 138,228 138,240 142,240 142,244" fill="none" stroke="#16232E" stroke-width="2" stroke-linecap="round" stroke-linejoin="round"/>
<polyline points="142,244 142,254" fill="none" stroke="#16232E" stroke-width="2" stroke-linecap="round" stroke-linejoin="round"/>
<text x="153" y="223" font-size="10" fill="#16232E" text-anchor="start">5</text>
<text x="153" y="252" font-size="10" fill="#16232E" text-anchor="start">6</text>
<text x="74" y="238" font-size="12" fill="#16232E" text-anchor="end" font-weight="bold">F7</text>
<polyline points="220,204 220,214" fill="none" stroke="#16232E" stroke-width="2" stroke-linecap="round" stroke-linejoin="round"/>
<rect x="214" y="214" width="12" height="80" fill="#fff" stroke="#16232E" stroke-width="2"/>
<polyline points="220,294 220,310" fill="none" stroke="#16232E" stroke-width="2" stroke-linecap="round" stroke-linejoin="round"/>
<polyline points="250,204 250,214" fill="none" stroke="#16232E" stroke-width="2" stroke-linecap="round" stroke-linejoin="round"/>
<rect x="244" y="214" width="12" height="80" fill="#fff" stroke="#16232E" stroke-width="2"/>
<polyline points="250,294 250,310" fill="none" stroke="#16232E" stroke-width="2" stroke-linecap="round" stroke-linejoin="round"/>
<polyline points="280,204 280,214" fill="none" stroke="#16232E" stroke-width="2" stroke-linecap="round" stroke-linejoin="round"/>
<rect x="274" y="214" width="12" height="80" fill="#fff" stroke="#16232E" stroke-width="2"/>
<polyline points="280,294 280,310" fill="none" stroke="#16232E" stroke-width="2" stroke-linecap="round" stroke-linejoin="round"/>
<text x="296" y="248" font-size="12" fill="#16232E" text-anchor="start" font-weight="bold">T1</text>
<text x="296" y="264" font-size="10" fill="#16232E" text-anchor="start">80%</text>
<polyline points="220,318 220,331" fill="none" stroke="#1D5A8C" stroke-width="2" stroke-linecap="round" stroke-linejoin="round"/>
<polyline points="220,358 220,345" fill="none" stroke="#1D5A8C" stroke-width="2" stroke-linecap="round" stroke-linejoin="round"/>
<polyline points="220,345 210,329" fill="none" stroke="#1D5A8C" stroke-width="2" stroke-linecap="round" stroke-linejoin="round"/>
<text x="226" y="327" font-size="10" fill="#1D5A8C" text-anchor="start">1</text>
<text x="226" y="356" font-size="10" fill="#1D5A8C" text-anchor="start">2</text>
<polyline points="250,318 250,331" fill="none" stroke="#1D5A8C" stroke-width="2" stroke-linecap="round" stroke-linejoin="round"/>
<polyline points="250,358 250,345" fill="none" stroke="#1D5A8C" stroke-width="2" stroke-linecap="round" stroke-linejoin="round"/>
<polyline points="250,345 240,329" fill="none" stroke="#1D5A8C" stroke-width="2" stroke-linecap="round" stroke-linejoin="round"/>
<text x="256" y="327" font-size="10" fill="#1D5A8C" text-anchor="start">3</text>
<text x="256" y="356" font-size="10" fill="#1D5A8C" text-anchor="start">4</text>
<polyline points="280,318 280,331" fill="none" stroke="#1D5A8C" stroke-width="2" stroke-linecap="round" stroke-linejoin="round"/>
<polyline points="280,358 280,345" fill="none" stroke="#1D5A8C" stroke-width="2" stroke-linecap="round" stroke-linejoin="round"/>
<polyline points="280,345 270,329" fill="none" stroke="#1D5A8C" stroke-width="2" stroke-linecap="round" stroke-linejoin="round"/>
<text x="286" y="327" font-size="10" fill="#1D5A8C" text-anchor="start">5</text>
<text x="286" y="356" font-size="10" fill="#1D5A8C" text-anchor="start">6</text>
<polyline points="215,337 275,337" fill="none" stroke="#1D5A8C" stroke-width="1.5" stroke-linecap="round" stroke-linejoin="round" stroke-dasharray="3,3"/>
<text x="298" y="342" font-size="12" fill="#1D5A8C" text-anchor="start" font-weight="bold">K3</text>
<polyline points="220,358 220,368 280,368 280,358" fill="none" stroke="#1D5A8C" stroke-width="2" stroke-linecap="round" stroke-linejoin="round"/>
<polyline points="250,358 250,368" fill="none" stroke="#1D5A8C" stroke-width="2" stroke-linecap="round" stroke-linejoin="round"/>
<circle cx="250" cy="368" r="3" fill="#1D5A8C"/>
<polyline points="220,310 220,318" fill="none" stroke="#16232E" stroke-width="2" stroke-linecap="round" stroke-linejoin="round"/>
<polyline points="250,310 250,318" fill="none" stroke="#16232E" stroke-width="2" stroke-linecap="round" stroke-linejoin="round"/>
<polyline points="280,310 280,318" fill="none" stroke="#16232E" stroke-width="2" stroke-linecap="round" stroke-linejoin="round"/>
<polyline points="90,254 90,320" fill="none" stroke="#16232E" stroke-width="2" stroke-linecap="round" stroke-linejoin="round"/>
<polyline points="116,254 116,320" fill="none" stroke="#16232E" stroke-width="2" stroke-linecap="round" stroke-linejoin="round"/>
<polyline points="142,254 142,320" fill="none" stroke="#16232E" stroke-width="2" stroke-linecap="round" stroke-linejoin="round"/>
<polyline points="214,230 208,230 208,298 90,298" fill="none" stroke="#16232E" stroke-width="2" stroke-linecap="round" stroke-linejoin="round"/>
<circle cx="90" cy="298" r="3" fill="#16232E"/>
<polyline points="244,230 238,230 238,302 116,302" fill="none" stroke="#16232E" stroke-width="2" stroke-linecap="round" stroke-linejoin="round"/>
<circle cx="116" cy="302" r="3" fill="#16232E"/>
<polyline points="274,230 268,230 268,306 142,306" fill="none" stroke="#16232E" stroke-width="2" stroke-linecap="round" stroke-linejoin="round"/>
<circle cx="142" cy="306" r="3" fill="#16232E"/>
<polyline points="90,320 90,334 99.3,356.1" fill="none" stroke="#16232E" stroke-width="2" stroke-linecap="round" stroke-linejoin="round"/>
<text x="94" y="331" font-size="10" fill="#16232E" text-anchor="start">U1</text>
<polyline points="116,320 116,334 116,350" fill="none" stroke="#16232E" stroke-width="2" stroke-linecap="round" stroke-linejoin="round"/>
<text x="120" y="331" font-size="10" fill="#16232E" text-anchor="start">V1</text>
<polyline points="142,320 142,334 132.7,356.1" fill="none" stroke="#16232E" stroke-width="2" stroke-linecap="round" stroke-linejoin="round"/>
<text x="146" y="331" font-size="10" fill="#16232E" text-anchor="start">W1</text>
<circle cx="116" cy="376" r="26" fill="none" stroke="#16232E" stroke-width="2"/>
<text x="116" y="374" font-size="15" fill="#16232E" text-anchor="middle" font-weight="bold">M</text>
<text x="116" y="390" font-size="12" fill="#16232E" text-anchor="middle">3~</text>
<text x="74" y="380" font-size="12" fill="#16232E" text-anchor="end" font-weight="bold">M1</text>
</svg>
