<!-- gerado por desenhar-figuras.py a partir de circuito 'simbolo:matematica/grafico-parabola-raizes-1-5'; não editar à mão -->
<svg xmlns="http://www.w3.org/2000/svg" viewBox="-1.4 -9.6 260.6 261.1" width="300" height="300.6" font-family="Arial, Helvetica, sans-serif">
<rect x="-1.4" y="-9.6" width="260.6" height="261.1" fill="#fff"/>
<polyline points="20,228 20,20" fill="none" stroke="#DDE4EA" stroke-width="0.6" stroke-linecap="round" stroke-linejoin="round"/>
<polyline points="46,228 46,20" fill="none" stroke="#DDE4EA" stroke-width="0.6" stroke-linecap="round" stroke-linejoin="round"/>
<polyline points="72,228 72,20" fill="none" stroke="#DDE4EA" stroke-width="0.6" stroke-linecap="round" stroke-linejoin="round"/>
<polyline points="98,228 98,20" fill="none" stroke="#DDE4EA" stroke-width="0.6" stroke-linecap="round" stroke-linejoin="round"/>
<polyline points="124,228 124,20" fill="none" stroke="#DDE4EA" stroke-width="0.6" stroke-linecap="round" stroke-linejoin="round"/>
<polyline points="150,228 150,20" fill="none" stroke="#DDE4EA" stroke-width="0.6" stroke-linecap="round" stroke-linejoin="round"/>
<polyline points="176,228 176,20" fill="none" stroke="#DDE4EA" stroke-width="0.6" stroke-linecap="round" stroke-linejoin="round"/>
<polyline points="202,228 202,20" fill="none" stroke="#DDE4EA" stroke-width="0.6" stroke-linecap="round" stroke-linejoin="round"/>
<polyline points="228,228 228,20" fill="none" stroke="#DDE4EA" stroke-width="0.6" stroke-linecap="round" stroke-linejoin="round"/>
<polyline points="20,228 228,228" fill="none" stroke="#DDE4EA" stroke-width="0.6" stroke-linecap="round" stroke-linejoin="round"/>
<polyline points="20,202 228,202" fill="none" stroke="#DDE4EA" stroke-width="0.6" stroke-linecap="round" stroke-linejoin="round"/>
<polyline points="20,176 228,176" fill="none" stroke="#DDE4EA" stroke-width="0.6" stroke-linecap="round" stroke-linejoin="round"/>
<polyline points="20,150 228,150" fill="none" stroke="#DDE4EA" stroke-width="0.6" stroke-linecap="round" stroke-linejoin="round"/>
<polyline points="20,124 228,124" fill="none" stroke="#DDE4EA" stroke-width="0.6" stroke-linecap="round" stroke-linejoin="round"/>
<polyline points="20,98 228,98" fill="none" stroke="#DDE4EA" stroke-width="0.6" stroke-linecap="round" stroke-linejoin="round"/>
<polyline points="20,72 228,72" fill="none" stroke="#DDE4EA" stroke-width="0.6" stroke-linecap="round" stroke-linejoin="round"/>
<polyline points="20,46 228,46" fill="none" stroke="#DDE4EA" stroke-width="0.6" stroke-linecap="round" stroke-linejoin="round"/>
<polyline points="20,20 228,20" fill="none" stroke="#DDE4EA" stroke-width="0.6" stroke-linecap="round" stroke-linejoin="round"/>
<polyline points="20,150 232.4,150" fill="none" stroke="#16232E" stroke-width="1.4" stroke-linecap="round" stroke-linejoin="round"/>
<polygon points="238,150 231,146.8 231,153.2" fill="#16232E" stroke="#16232E" stroke-width="1"/>
<polyline points="46,228 46,15.6" fill="none" stroke="#16232E" stroke-width="1.4" stroke-linecap="round" stroke-linejoin="round"/>
<polygon points="46,10 42.9,17 49.1,17" fill="#16232E" stroke="#16232E" stroke-width="1"/>
<text x="236" y="166" font-size="12" fill="#16232E" text-anchor="start" font-style="italic">x</text>
<text x="36" y="16" font-size="12" fill="#16232E" text-anchor="start" font-style="italic">y</text>
<text x="20" y="164" font-size="9" fill="#5A6B7A" text-anchor="middle">-1</text>
<text x="72" y="164" font-size="9" fill="#5A6B7A" text-anchor="middle">1</text>
<text x="98" y="164" font-size="9" fill="#5A6B7A" text-anchor="middle">2</text>
<text x="124" y="164" font-size="9" fill="#5A6B7A" text-anchor="middle">3</text>
<text x="150" y="164" font-size="9" fill="#5A6B7A" text-anchor="middle">4</text>
<text x="176" y="164" font-size="9" fill="#5A6B7A" text-anchor="middle">5</text>
<text x="202" y="164" font-size="9" fill="#5A6B7A" text-anchor="middle">6</text>
<text x="228" y="164" font-size="9" fill="#5A6B7A" text-anchor="middle">7</text>
<text x="41" y="231" font-size="9" fill="#5A6B7A" text-anchor="end">-3</text>
<text x="41" y="205" font-size="9" fill="#5A6B7A" text-anchor="end">-2</text>
<text x="41" y="179" font-size="9" fill="#5A6B7A" text-anchor="end">-1</text>
<text x="41" y="127" font-size="9" fill="#5A6B7A" text-anchor="end">1</text>
<text x="41" y="101" font-size="9" fill="#5A6B7A" text-anchor="end">2</text>
<text x="41" y="75" font-size="9" fill="#5A6B7A" text-anchor="end">3</text>
<text x="41" y="49" font-size="9" fill="#5A6B7A" text-anchor="end">4</text>
<text x="41" y="23" font-size="9" fill="#5A6B7A" text-anchor="end">5</text>
<polyline points="53.8,235.5 55.1,228.6 56.4,221.8 57.7,215.1 59,208.5 60.3,202.1 61.6,195.8 62.9,189.6 64.2,183.5 65.5,177.6 66.8,171.8 68.1,166.2 69.4,160.7 70.7,155.3 72,150 73.3,144.9 74.6,139.9 75.9,135 77.2,130.2 78.5,125.6 79.8,121.1 81.1,116.8 82.4,112.6 83.7,108.5 85,104.5 86.3,100.7 87.6,97 88.9,93.4 90.2,89.9 91.5,86.6 92.8,83.4 94.1,80.4 95.4,77.5 96.7,74.7 98,72 99.3,69.5 100.6,67.1 101.9,64.8 103.2,62.6 104.5,60.6 105.8,58.7 107.1,57 108.4,55.4 109.7,53.9 111,52.5 112.3,51.3 113.6,50.2 114.9,49.2 116.2,48.3 117.5,47.6 118.8,47 120.1,46.6 121.4,46.3 122.7,46.1 124,46 125.3,46.1 126.6,46.3 127.9,46.6 129.2,47 130.5,47.6 131.8,48.3 133.1,49.2 134.4,50.2 135.7,51.3 137,52.5 138.3,53.9 139.6,55.4 140.9,57 142.2,58.7 143.5,60.6 144.8,62.6 146.1,64.8 147.4,67.1 148.7,69.5 150,72 151.3,74.7 152.6,77.5 153.9,80.4 155.2,83.4 156.5,86.6 157.8,89.9 159.1,93.4 160.4,97 161.7,100.7 163,104.5 164.3,108.5 165.6,112.6 166.9,116.8 168.2,121.1 169.5,125.6 170.8,130.2 172.1,135 173.4,139.9 174.7,144.9 176,150 177.3,155.3 178.6,160.7 179.9,166.2 181.2,171.8 182.5,177.6 183.8,183.5 185.1,189.6 186.4,195.8 187.7,202.1 189,208.5 190.3,215.1 191.6,221.8 192.9,228.6 194.2,235.5" fill="none" stroke="#1D5A8C" stroke-width="2.6" stroke-linecap="round" stroke-linejoin="round"/>
<circle cx="72" cy="150" r="3.5" fill="#16232E"/>
<circle cx="176" cy="150" r="3.5" fill="#16232E"/>
</svg>
