<!-- gerado por desenhar-figuras.py a partir de circuito 'simbolo:matematica/grafico-parabola-vertice-2-menos1'; não editar à mão -->
<svg xmlns="http://www.w3.org/2000/svg" viewBox="-1.4 -9.6 260.6 258.4" width="300" height="297.5" font-family="Arial, Helvetica, sans-serif">
<rect x="-1.4" y="-9.6" width="260.6" height="258.4" fill="#fff"/>
<polyline points="20,228 20,20" fill="none" stroke="#DDE4EA" stroke-width="0.6" stroke-linecap="round" stroke-linejoin="round"/>
<polyline points="46,228 46,20" fill="none" stroke="#DDE4EA" stroke-width="0.6" stroke-linecap="round" stroke-linejoin="round"/>
<polyline points="72,228 72,20" fill="none" stroke="#DDE4EA" stroke-width="0.6" stroke-linecap="round" stroke-linejoin="round"/>
<polyline points="98,228 98,20" fill="none" stroke="#DDE4EA" stroke-width="0.6" stroke-linecap="round" stroke-linejoin="round"/>
<polyline points="124,228 124,20" fill="none" stroke="#DDE4EA" stroke-width="0.6" stroke-linecap="round" stroke-linejoin="round"/>
<polyline points="150,228 150,20" fill="none" stroke="#DDE4EA" stroke-width="0.6" stroke-linecap="round" stroke-linejoin="round"/>
<polyline points="176,228 176,20" fill="none" stroke="#DDE4EA" stroke-width="0.6" stroke-linecap="round" stroke-linejoin="round"/>
<polyline points="202,228 202,20" fill="none" stroke="#DDE4EA" stroke-width="0.6" stroke-linecap="round" stroke-linejoin="round"/>
<polyline points="228,228 228,20" fill="none" stroke="#DDE4EA" stroke-width="0.6" stroke-linecap="round" stroke-linejoin="round"/>
<polyline points="20,228 228,228" fill="none" stroke="#DDE4EA" stroke-width="0.6" stroke-linecap="round" stroke-linejoin="round"/>
<polyline points="20,202 228,202" fill="none" stroke="#DDE4EA" stroke-width="0.6" stroke-linecap="round" stroke-linejoin="round"/>
<polyline points="20,176 228,176" fill="none" stroke="#DDE4EA" stroke-width="0.6" stroke-linecap="round" stroke-linejoin="round"/>
<polyline points="20,150 228,150" fill="none" stroke="#DDE4EA" stroke-width="0.6" stroke-linecap="round" stroke-linejoin="round"/>
<polyline points="20,124 228,124" fill="none" stroke="#DDE4EA" stroke-width="0.6" stroke-linecap="round" stroke-linejoin="round"/>
<polyline points="20,98 228,98" fill="none" stroke="#DDE4EA" stroke-width="0.6" stroke-linecap="round" stroke-linejoin="round"/>
<polyline points="20,72 228,72" fill="none" stroke="#DDE4EA" stroke-width="0.6" stroke-linecap="round" stroke-linejoin="round"/>
<polyline points="20,46 228,46" fill="none" stroke="#DDE4EA" stroke-width="0.6" stroke-linecap="round" stroke-linejoin="round"/>
<polyline points="20,20 228,20" fill="none" stroke="#DDE4EA" stroke-width="0.6" stroke-linecap="round" stroke-linejoin="round"/>
<polyline points="20,176 232.4,176" fill="none" stroke="#16232E" stroke-width="1.4" stroke-linecap="round" stroke-linejoin="round"/>
<polygon points="238,176 231,172.8 231,179.2" fill="#16232E" stroke="#16232E" stroke-width="1"/>
<polyline points="72,228 72,15.6" fill="none" stroke="#16232E" stroke-width="1.4" stroke-linecap="round" stroke-linejoin="round"/>
<polygon points="72,10 68.8,17 75.2,17" fill="#16232E" stroke="#16232E" stroke-width="1"/>
<text x="236" y="192" font-size="12" fill="#16232E" text-anchor="start" font-style="italic">x</text>
<text x="62" y="16" font-size="12" fill="#16232E" text-anchor="start" font-style="italic">y</text>
<text x="20" y="190" font-size="9" fill="#5A6B7A" text-anchor="middle">-2</text>
<text x="46" y="190" font-size="9" fill="#5A6B7A" text-anchor="middle">-1</text>
<text x="98" y="190" font-size="9" fill="#5A6B7A" text-anchor="middle">1</text>
<text x="124" y="190" font-size="9" fill="#5A6B7A" text-anchor="middle">2</text>
<text x="150" y="190" font-size="9" fill="#5A6B7A" text-anchor="middle">3</text>
<text x="176" y="190" font-size="9" fill="#5A6B7A" text-anchor="middle">4</text>
<text x="202" y="190" font-size="9" fill="#5A6B7A" text-anchor="middle">5</text>
<text x="228" y="190" font-size="9" fill="#5A6B7A" text-anchor="middle">6</text>
<text x="67" y="231" font-size="9" fill="#5A6B7A" text-anchor="end">-2</text>
<text x="67" y="205" font-size="9" fill="#5A6B7A" text-anchor="end">-1</text>
<text x="67" y="153" font-size="9" fill="#5A6B7A" text-anchor="end">1</text>
<text x="67" y="127" font-size="9" fill="#5A6B7A" text-anchor="end">2</text>
<text x="67" y="101" font-size="9" fill="#5A6B7A" text-anchor="end">3</text>
<text x="67" y="75" font-size="9" fill="#5A6B7A" text-anchor="end">4</text>
<text x="67" y="49" font-size="9" fill="#5A6B7A" text-anchor="end">5</text>
<text x="67" y="23" font-size="9" fill="#5A6B7A" text-anchor="end">6</text>
<polyline points="53.8,12.5 55.1,19.4 56.4,26.2 57.7,32.9 59,39.5 60.3,45.9 61.6,52.2 62.9,58.4 64.2,64.5 65.5,70.4 66.8,76.2 68.1,81.8 69.4,87.3 70.7,92.7 72,98 73.3,103.1 74.6,108.1 75.9,113 77.2,117.8 78.5,122.4 79.8,126.9 81.1,131.2 82.4,135.4 83.7,139.5 85,143.5 86.3,147.3 87.6,151 88.9,154.6 90.2,158.1 91.5,161.4 92.8,164.6 94.1,167.6 95.4,170.5 96.7,173.3 98,176 99.3,178.5 100.6,180.9 101.9,183.2 103.2,185.4 104.5,187.4 105.8,189.3 107.1,191 108.4,192.6 109.7,194.1 111,195.5 112.3,196.7 113.6,197.8 114.9,198.8 116.2,199.7 117.5,200.4 118.8,201 120.1,201.4 121.4,201.7 122.7,201.9 124,202 125.3,201.9 126.6,201.7 127.9,201.4 129.2,201 130.5,200.4 131.8,199.7 133.1,198.8 134.4,197.8 135.7,196.7 137,195.5 138.3,194.1 139.6,192.6 140.9,191 142.2,189.3 143.5,187.4 144.8,185.4 146.1,183.2 147.4,180.9 148.7,178.5 150,176 151.3,173.3 152.6,170.5 153.9,167.6 155.2,164.6 156.5,161.4 157.8,158.1 159.1,154.6 160.4,151 161.7,147.3 163,143.5 164.3,139.5 165.6,135.4 166.9,131.2 168.2,126.9 169.5,122.4 170.8,117.8 172.1,113 173.4,108.1 174.7,103.1 176,98 177.3,92.7 178.6,87.3 179.9,81.8 181.2,76.2 182.5,70.4 183.8,64.5 185.1,58.4 186.4,52.2 187.7,45.9 189,39.5 190.3,32.9 191.6,26.2 192.9,19.4 194.2,12.5" fill="none" stroke="#1D5A8C" stroke-width="2.6" stroke-linecap="round" stroke-linejoin="round"/>
<circle cx="124" cy="202" r="3.5" fill="#16232E"/>
</svg>
