<!-- gerado por desenhar-figuras.py a partir de circuito 'simbolo:enfermagem/ecg-assistolia'; não editar à mão -->
<svg xmlns="http://www.w3.org/2000/svg" viewBox="-6 -6 362 172" width="362" height="172" font-family="Arial, Helvetica, sans-serif">
<rect x="-6" y="-6" width="362" height="172" fill="#fff"/>
<polyline points="10,10 10,150" fill="none" stroke="#F2C4C4" stroke-width="1.2" stroke-linecap="round" stroke-linejoin="round"/>
<polyline points="14.4,10 14.4,150" fill="none" stroke="#FAE3E3" stroke-width="0.5" stroke-linecap="round" stroke-linejoin="round"/>
<polyline points="18.8,10 18.8,150" fill="none" stroke="#FAE3E3" stroke-width="0.5" stroke-linecap="round" stroke-linejoin="round"/>
<polyline points="23.2,10 23.2,150" fill="none" stroke="#FAE3E3" stroke-width="0.5" stroke-linecap="round" stroke-linejoin="round"/>
<polyline points="27.6,10 27.6,150" fill="none" stroke="#FAE3E3" stroke-width="0.5" stroke-linecap="round" stroke-linejoin="round"/>
<polyline points="32,10 32,150" fill="none" stroke="#F2C4C4" stroke-width="1.2" stroke-linecap="round" stroke-linejoin="round"/>
<polyline points="36.4,10 36.4,150" fill="none" stroke="#FAE3E3" stroke-width="0.5" stroke-linecap="round" stroke-linejoin="round"/>
<polyline points="40.8,10 40.8,150" fill="none" stroke="#FAE3E3" stroke-width="0.5" stroke-linecap="round" stroke-linejoin="round"/>
<polyline points="45.2,10 45.2,150" fill="none" stroke="#FAE3E3" stroke-width="0.5" stroke-linecap="round" stroke-linejoin="round"/>
<polyline points="49.6,10 49.6,150" fill="none" stroke="#FAE3E3" stroke-width="0.5" stroke-linecap="round" stroke-linejoin="round"/>
<polyline points="54,10 54,150" fill="none" stroke="#F2C4C4" stroke-width="1.2" stroke-linecap="round" stroke-linejoin="round"/>
<polyline points="58.4,10 58.4,150" fill="none" stroke="#FAE3E3" stroke-width="0.5" stroke-linecap="round" stroke-linejoin="round"/>
<polyline points="62.8,10 62.8,150" fill="none" stroke="#FAE3E3" stroke-width="0.5" stroke-linecap="round" stroke-linejoin="round"/>
<polyline points="67.2,10 67.2,150" fill="none" stroke="#FAE3E3" stroke-width="0.5" stroke-linecap="round" stroke-linejoin="round"/>
<polyline points="71.6,10 71.6,150" fill="none" stroke="#FAE3E3" stroke-width="0.5" stroke-linecap="round" stroke-linejoin="round"/>
<polyline points="76,10 76,150" fill="none" stroke="#F2C4C4" stroke-width="1.2" stroke-linecap="round" stroke-linejoin="round"/>
<polyline points="80.4,10 80.4,150" fill="none" stroke="#FAE3E3" stroke-width="0.5" stroke-linecap="round" stroke-linejoin="round"/>
<polyline points="84.8,10 84.8,150" fill="none" stroke="#FAE3E3" stroke-width="0.5" stroke-linecap="round" stroke-linejoin="round"/>
<polyline points="89.2,10 89.2,150" fill="none" stroke="#FAE3E3" stroke-width="0.5" stroke-linecap="round" stroke-linejoin="round"/>
<polyline points="93.6,10 93.6,150" fill="none" stroke="#FAE3E3" stroke-width="0.5" stroke-linecap="round" stroke-linejoin="round"/>
<polyline points="98,10 98,150" fill="none" stroke="#F2C4C4" stroke-width="1.2" stroke-linecap="round" stroke-linejoin="round"/>
<polyline points="102.4,10 102.4,150" fill="none" stroke="#FAE3E3" stroke-width="0.5" stroke-linecap="round" stroke-linejoin="round"/>
<polyline points="106.8,10 106.8,150" fill="none" stroke="#FAE3E3" stroke-width="0.5" stroke-linecap="round" stroke-linejoin="round"/>
<polyline points="111.2,10 111.2,150" fill="none" stroke="#FAE3E3" stroke-width="0.5" stroke-linecap="round" stroke-linejoin="round"/>
<polyline points="115.6,10 115.6,150" fill="none" stroke="#FAE3E3" stroke-width="0.5" stroke-linecap="round" stroke-linejoin="round"/>
<polyline points="120,10 120,150" fill="none" stroke="#F2C4C4" stroke-width="1.2" stroke-linecap="round" stroke-linejoin="round"/>
<polyline points="124.4,10 124.4,150" fill="none" stroke="#FAE3E3" stroke-width="0.5" stroke-linecap="round" stroke-linejoin="round"/>
<polyline points="128.8,10 128.8,150" fill="none" stroke="#FAE3E3" stroke-width="0.5" stroke-linecap="round" stroke-linejoin="round"/>
<polyline points="133.2,10 133.2,150" fill="none" stroke="#FAE3E3" stroke-width="0.5" stroke-linecap="round" stroke-linejoin="round"/>
<polyline points="137.6,10 137.6,150" fill="none" stroke="#FAE3E3" stroke-width="0.5" stroke-linecap="round" stroke-linejoin="round"/>
<polyline points="142,10 142,150" fill="none" stroke="#F2C4C4" stroke-width="1.2" stroke-linecap="round" stroke-linejoin="round"/>
<polyline points="146.4,10 146.4,150" fill="none" stroke="#FAE3E3" stroke-width="0.5" stroke-linecap="round" stroke-linejoin="round"/>
<polyline points="150.8,10 150.8,150" fill="none" stroke="#FAE3E3" stroke-width="0.5" stroke-linecap="round" stroke-linejoin="round"/>
<polyline points="155.2,10 155.2,150" fill="none" stroke="#FAE3E3" stroke-width="0.5" stroke-linecap="round" stroke-linejoin="round"/>
<polyline points="159.6,10 159.6,150" fill="none" stroke="#FAE3E3" stroke-width="0.5" stroke-linecap="round" stroke-linejoin="round"/>
<polyline points="164,10 164,150" fill="none" stroke="#F2C4C4" stroke-width="1.2" stroke-linecap="round" stroke-linejoin="round"/>
<polyline points="168.4,10 168.4,150" fill="none" stroke="#FAE3E3" stroke-width="0.5" stroke-linecap="round" stroke-linejoin="round"/>
<polyline points="172.8,10 172.8,150" fill="none" stroke="#FAE3E3" stroke-width="0.5" stroke-linecap="round" stroke-linejoin="round"/>
<polyline points="177.2,10 177.2,150" fill="none" stroke="#FAE3E3" stroke-width="0.5" stroke-linecap="round" stroke-linejoin="round"/>
<polyline points="181.6,10 181.6,150" fill="none" stroke="#FAE3E3" stroke-width="0.5" stroke-linecap="round" stroke-linejoin="round"/>
<polyline points="186,10 186,150" fill="none" stroke="#F2C4C4" stroke-width="1.2" stroke-linecap="round" stroke-linejoin="round"/>
<polyline points="190.4,10 190.4,150" fill="none" stroke="#FAE3E3" stroke-width="0.5" stroke-linecap="round" stroke-linejoin="round"/>
<polyline points="194.8,10 194.8,150" fill="none" stroke="#FAE3E3" stroke-width="0.5" stroke-linecap="round" stroke-linejoin="round"/>
<polyline points="199.2,10 199.2,150" fill="none" stroke="#FAE3E3" stroke-width="0.5" stroke-linecap="round" stroke-linejoin="round"/>
<polyline points="203.6,10 203.6,150" fill="none" stroke="#FAE3E3" stroke-width="0.5" stroke-linecap="round" stroke-linejoin="round"/>
<polyline points="208,10 208,150" fill="none" stroke="#F2C4C4" stroke-width="1.2" stroke-linecap="round" stroke-linejoin="round"/>
<polyline points="212.4,10 212.4,150" fill="none" stroke="#FAE3E3" stroke-width="0.5" stroke-linecap="round" stroke-linejoin="round"/>
<polyline points="216.8,10 216.8,150" fill="none" stroke="#FAE3E3" stroke-width="0.5" stroke-linecap="round" stroke-linejoin="round"/>
<polyline points="221.2,10 221.2,150" fill="none" stroke="#FAE3E3" stroke-width="0.5" stroke-linecap="round" stroke-linejoin="round"/>
<polyline points="225.6,10 225.6,150" fill="none" stroke="#FAE3E3" stroke-width="0.5" stroke-linecap="round" stroke-linejoin="round"/>
<polyline points="230,10 230,150" fill="none" stroke="#F2C4C4" stroke-width="1.2" stroke-linecap="round" stroke-linejoin="round"/>
<polyline points="234.4,10 234.4,150" fill="none" stroke="#FAE3E3" stroke-width="0.5" stroke-linecap="round" stroke-linejoin="round"/>
<polyline points="238.8,10 238.8,150" fill="none" stroke="#FAE3E3" stroke-width="0.5" stroke-linecap="round" stroke-linejoin="round"/>
<polyline points="243.2,10 243.2,150" fill="none" stroke="#FAE3E3" stroke-width="0.5" stroke-linecap="round" stroke-linejoin="round"/>
<polyline points="247.6,10 247.6,150" fill="none" stroke="#FAE3E3" stroke-width="0.5" stroke-linecap="round" stroke-linejoin="round"/>
<polyline points="252,10 252,150" fill="none" stroke="#F2C4C4" stroke-width="1.2" stroke-linecap="round" stroke-linejoin="round"/>
<polyline points="256.4,10 256.4,150" fill="none" stroke="#FAE3E3" stroke-width="0.5" stroke-linecap="round" stroke-linejoin="round"/>
<polyline points="260.8,10 260.8,150" fill="none" stroke="#FAE3E3" stroke-width="0.5" stroke-linecap="round" stroke-linejoin="round"/>
<polyline points="265.2,10 265.2,150" fill="none" stroke="#FAE3E3" stroke-width="0.5" stroke-linecap="round" stroke-linejoin="round"/>
<polyline points="269.6,10 269.6,150" fill="none" stroke="#FAE3E3" stroke-width="0.5" stroke-linecap="round" stroke-linejoin="round"/>
<polyline points="274,10 274,150" fill="none" stroke="#F2C4C4" stroke-width="1.2" stroke-linecap="round" stroke-linejoin="round"/>
<polyline points="278.4,10 278.4,150" fill="none" stroke="#FAE3E3" stroke-width="0.5" stroke-linecap="round" stroke-linejoin="round"/>
<polyline points="282.8,10 282.8,150" fill="none" stroke="#FAE3E3" stroke-width="0.5" stroke-linecap="round" stroke-linejoin="round"/>
<polyline points="287.2,10 287.2,150" fill="none" stroke="#FAE3E3" stroke-width="0.5" stroke-linecap="round" stroke-linejoin="round"/>
<polyline points="291.6,10 291.6,150" fill="none" stroke="#FAE3E3" stroke-width="0.5" stroke-linecap="round" stroke-linejoin="round"/>
<polyline points="296,10 296,150" fill="none" stroke="#F2C4C4" stroke-width="1.2" stroke-linecap="round" stroke-linejoin="round"/>
<polyline points="300.4,10 300.4,150" fill="none" stroke="#FAE3E3" stroke-width="0.5" stroke-linecap="round" stroke-linejoin="round"/>
<polyline points="304.8,10 304.8,150" fill="none" stroke="#FAE3E3" stroke-width="0.5" stroke-linecap="round" stroke-linejoin="round"/>
<polyline points="309.2,10 309.2,150" fill="none" stroke="#FAE3E3" stroke-width="0.5" stroke-linecap="round" stroke-linejoin="round"/>
<polyline points="313.6,10 313.6,150" fill="none" stroke="#FAE3E3" stroke-width="0.5" stroke-linecap="round" stroke-linejoin="round"/>
<polyline points="318,10 318,150" fill="none" stroke="#F2C4C4" stroke-width="1.2" stroke-linecap="round" stroke-linejoin="round"/>
<polyline points="322.4,10 322.4,150" fill="none" stroke="#FAE3E3" stroke-width="0.5" stroke-linecap="round" stroke-linejoin="round"/>
<polyline points="326.8,10 326.8,150" fill="none" stroke="#FAE3E3" stroke-width="0.5" stroke-linecap="round" stroke-linejoin="round"/>
<polyline points="331.2,10 331.2,150" fill="none" stroke="#FAE3E3" stroke-width="0.5" stroke-linecap="round" stroke-linejoin="round"/>
<polyline points="335.6,10 335.6,150" fill="none" stroke="#FAE3E3" stroke-width="0.5" stroke-linecap="round" stroke-linejoin="round"/>
<polyline points="340,10 340,150" fill="none" stroke="#F2C4C4" stroke-width="1.2" stroke-linecap="round" stroke-linejoin="round"/>
<polyline points="10,10 340,10" fill="none" stroke="#F2C4C4" stroke-width="1.2" stroke-linecap="round" stroke-linejoin="round"/>
<polyline points="10,14.4 340,14.4" fill="none" stroke="#FAE3E3" stroke-width="0.5" stroke-linecap="round" stroke-linejoin="round"/>
<polyline points="10,18.8 340,18.8" fill="none" stroke="#FAE3E3" stroke-width="0.5" stroke-linecap="round" stroke-linejoin="round"/>
<polyline points="10,23.2 340,23.2" fill="none" stroke="#FAE3E3" stroke-width="0.5" stroke-linecap="round" stroke-linejoin="round"/>
<polyline points="10,27.6 340,27.6" fill="none" stroke="#FAE3E3" stroke-width="0.5" stroke-linecap="round" stroke-linejoin="round"/>
<polyline points="10,32 340,32" fill="none" stroke="#F2C4C4" stroke-width="1.2" stroke-linecap="round" stroke-linejoin="round"/>
<polyline points="10,36.4 340,36.4" fill="none" stroke="#FAE3E3" stroke-width="0.5" stroke-linecap="round" stroke-linejoin="round"/>
<polyline points="10,40.8 340,40.8" fill="none" stroke="#FAE3E3" stroke-width="0.5" stroke-linecap="round" stroke-linejoin="round"/>
<polyline points="10,45.2 340,45.2" fill="none" stroke="#FAE3E3" stroke-width="0.5" stroke-linecap="round" stroke-linejoin="round"/>
<polyline points="10,49.6 340,49.6" fill="none" stroke="#FAE3E3" stroke-width="0.5" stroke-linecap="round" stroke-linejoin="round"/>
<polyline points="10,54 340,54" fill="none" stroke="#F2C4C4" stroke-width="1.2" stroke-linecap="round" stroke-linejoin="round"/>
<polyline points="10,58.4 340,58.4" fill="none" stroke="#FAE3E3" stroke-width="0.5" stroke-linecap="round" stroke-linejoin="round"/>
<polyline points="10,62.8 340,62.8" fill="none" stroke="#FAE3E3" stroke-width="0.5" stroke-linecap="round" stroke-linejoin="round"/>
<polyline points="10,67.2 340,67.2" fill="none" stroke="#FAE3E3" stroke-width="0.5" stroke-linecap="round" stroke-linejoin="round"/>
<polyline points="10,71.6 340,71.6" fill="none" stroke="#FAE3E3" stroke-width="0.5" stroke-linecap="round" stroke-linejoin="round"/>
<polyline points="10,76 340,76" fill="none" stroke="#F2C4C4" stroke-width="1.2" stroke-linecap="round" stroke-linejoin="round"/>
<polyline points="10,80.4 340,80.4" fill="none" stroke="#FAE3E3" stroke-width="0.5" stroke-linecap="round" stroke-linejoin="round"/>
<polyline points="10,84.8 340,84.8" fill="none" stroke="#FAE3E3" stroke-width="0.5" stroke-linecap="round" stroke-linejoin="round"/>
<polyline points="10,89.2 340,89.2" fill="none" stroke="#FAE3E3" stroke-width="0.5" stroke-linecap="round" stroke-linejoin="round"/>
<polyline points="10,93.6 340,93.6" fill="none" stroke="#FAE3E3" stroke-width="0.5" stroke-linecap="round" stroke-linejoin="round"/>
<polyline points="10,98 340,98" fill="none" stroke="#F2C4C4" stroke-width="1.2" stroke-linecap="round" stroke-linejoin="round"/>
<polyline points="10,102.4 340,102.4" fill="none" stroke="#FAE3E3" stroke-width="0.5" stroke-linecap="round" stroke-linejoin="round"/>
<polyline points="10,106.8 340,106.8" fill="none" stroke="#FAE3E3" stroke-width="0.5" stroke-linecap="round" stroke-linejoin="round"/>
<polyline points="10,111.2 340,111.2" fill="none" stroke="#FAE3E3" stroke-width="0.5" stroke-linecap="round" stroke-linejoin="round"/>
<polyline points="10,115.6 340,115.6" fill="none" stroke="#FAE3E3" stroke-width="0.5" stroke-linecap="round" stroke-linejoin="round"/>
<polyline points="10,120 340,120" fill="none" stroke="#F2C4C4" stroke-width="1.2" stroke-linecap="round" stroke-linejoin="round"/>
<polyline points="10,124.4 340,124.4" fill="none" stroke="#FAE3E3" stroke-width="0.5" stroke-linecap="round" stroke-linejoin="round"/>
<polyline points="10,128.8 340,128.8" fill="none" stroke="#FAE3E3" stroke-width="0.5" stroke-linecap="round" stroke-linejoin="round"/>
<polyline points="10,133.2 340,133.2" fill="none" stroke="#FAE3E3" stroke-width="0.5" stroke-linecap="round" stroke-linejoin="round"/>
<polyline points="10,137.6 340,137.6" fill="none" stroke="#FAE3E3" stroke-width="0.5" stroke-linecap="round" stroke-linejoin="round"/>
<polyline points="10,142 340,142" fill="none" stroke="#F2C4C4" stroke-width="1.2" stroke-linecap="round" stroke-linejoin="round"/>
<polyline points="10,146.4 340,146.4" fill="none" stroke="#FAE3E3" stroke-width="0.5" stroke-linecap="round" stroke-linejoin="round"/>
<polyline points="10,94 10.2,94 10.5,94 10.8,93.9 11,93.9 11.2,93.9 11.5,93.9 11.8,93.8 12,93.8 12.2,93.8 12.5,93.8 12.8,93.7 13,93.7 13.2,93.7 13.5,93.7 13.8,93.6 14,93.6 14.2,93.6 14.5,93.6 14.8,93.5 15,93.5 15.2,93.5 15.5,93.5 15.8,93.5 16,93.4 16.2,93.4 16.5,93.4 16.8,93.4 17,93.3 17.2,93.3 17.5,93.3 17.8,93.3 18,93.3 18.2,93.3 18.5,93.2 18.8,93.2 19,93.2 19.2,93.2 19.5,93.2 19.8,93.1 20,93.1 20.2,93.1 20.5,93.1 20.8,93.1 21,93.1 21.2,93.1 21.5,93 21.8,93 22,93 22.2,93 22.5,93 22.8,93 23,93 23.2,93 23.5,92.9 23.8,92.9 24,92.9 24.2,92.9 24.5,92.9 24.8,92.9 25,92.9 25.2,92.9 25.5,92.9 25.8,92.9 26,92.9 26.2,92.9 26.5,92.9 26.8,92.9 27,92.8 27.2,92.8 27.5,92.8 27.8,92.8 28,92.8 28.2,92.8 28.5,92.8 28.8,92.8 29,92.8 29.2,92.8 29.5,92.8 29.8,92.8 30,92.8 30.2,92.8 30.5,92.8 30.8,92.8 31,92.8 31.2,92.8 31.5,92.8 31.8,92.8 32,92.8 32.2,92.9 32.5,92.9 32.8,92.9 33,92.9 33.2,92.9 33.5,92.9 33.8,92.9 34,92.9 34.2,92.9 34.5,92.9 34.8,92.9 35,92.9 35.2,92.9 35.5,92.9 35.8,92.9 36,92.9 36.2,92.9 36.5,93 36.8,93 37,93 37.2,93 37.5,93 37.8,93 38,93 38.2,93 38.5,93 38.8,93 39,93 39.2,93 39.5,93.1 39.8,93.1 40,93.1 40.2,93.1 40.5,93.1 40.8,93.1 41,93.1 41.2,93.1 41.5,93.1 41.8,93.1 42,93.1 42.2,93.1 42.5,93.2 42.8,93.2 43,93.2 43.2,93.2 43.5,93.2 43.8,93.2 44,93.2 44.2,93.2 44.5,93.2 44.8,93.2 45,93.2 45.2,93.2 45.5,93.2 45.8,93.2 46,93.2 46.2,93.2 46.5,93.3 46.8,93.3 47,93.3 47.2,93.3 47.5,93.3 47.8,93.3 48,93.3 48.2,93.3 48.5,93.3 48.8,93.3 49,93.3 49.2,93.3 49.5,93.3 49.8,93.3 50,93.3 50.2,93.3 50.5,93.3 50.8,93.3 51,93.3 51.2,93.3 51.5,93.3 51.8,93.3 52,93.3 52.2,93.3 52.5,93.3 52.8,93.3 53,93.3 53.2,93.2 53.5,93.2 53.8,93.2 54,93.2 54.2,93.2 54.5,93.2 54.8,93.2 55,93.2 55.2,93.2 55.5,93.2 55.8,93.2 56,93.2 56.2,93.2 56.5,93.1 56.8,93.1 57,93.1 57.2,93.1 57.5,93.1 57.8,93.1 58,93.1 58.2,93.1 58.5,93 58.8,93 59,93 59.2,93 59.5,93 59.8,93 60,93 60.2,92.9 60.5,92.9 60.8,92.9 61,92.9 61.2,92.9 61.5,92.9 61.8,92.8 62,92.8 62.2,92.8 62.5,92.8 62.8,92.8 63,92.8 63.2,92.7 63.5,92.7 63.8,92.7 64,92.7 64.2,92.7 64.5,92.6 64.8,92.6 65,92.6 65.2,92.6 65.5,92.6 65.8,92.6 66,92.5 66.2,92.5 66.5,92.5 66.8,92.5 67,92.5 67.2,92.4 67.5,92.4 67.8,92.4 68,92.4 68.2,92.4 68.5,92.3 68.8,92.3 69,92.3 69.2,92.3 69.5,92.3 69.8,92.2 70,92.2 70.2,92.2 70.5,92.2 70.8,92.2 71,92.1 71.2,92.1 71.5,92.1 71.8,92.1 72,92.1 72.2,92.1 72.5,92 72.8,92 73,92 73.2,92 73.5,92 73.8,92 74,91.9 74.2,91.9 74.5,91.9 74.8,91.9 75,91.9 75.2,91.9 75.5,91.9 75.8,91.9 76,91.8 76.2,91.8 76.5,91.8 76.8,91.8 77,91.8 77.2,91.8 77.5,91.8 77.8,91.8 78,91.8 78.2,91.7 78.5,91.7 78.8,91.7 79,91.7 79.2,91.7 79.5,91.7 79.8,91.7 80,91.7 80.2,91.7 80.5,91.7 80.8,91.7 81,91.7 81.2,91.7 81.5,91.7 81.8,91.7 82,91.7 82.2,91.7 82.5,91.7 82.8,91.7 83,91.7 83.2,91.7 83.5,91.7 83.8,91.7 84,91.7 84.2,91.7 84.5,91.7 84.8,91.7 85,91.7 85.2,91.7 85.5,91.7 85.8,91.7 86,91.7 86.2,91.7 86.5,91.7 86.8,91.7 87,91.7 87.2,91.7 87.5,91.7 87.8,91.7 88,91.8 88.2,91.8 88.5,91.8 88.8,91.8 89,91.8 89.2,91.8 89.5,91.8 89.8,91.8 90,91.8 90.2,91.9 90.5,91.9 90.8,91.9 91,91.9 91.2,91.9 91.5,91.9 91.8,91.9 92,91.9 92.2,92 92.5,92 92.8,92 93,92 93.2,92 93.5,92 93.8,92.1 94,92.1 94.2,92.1 94.5,92.1 94.8,92.1 95,92.1 95.2,92.2 95.5,92.2 95.8,92.2 96,92.2 96.2,92.2 96.5,92.2 96.8,92.3 97,92.3 97.2,92.3 97.5,92.3 97.8,92.3 98,92.3 98.2,92.4 98.5,92.4 98.8,92.4 99,92.4 99.2,92.4 99.5,92.4 99.8,92.5 100,92.5 100.2,92.5 100.5,92.5 100.8,92.5 101,92.5 101.2,92.6 101.5,92.6 101.8,92.6 102,92.6 102.2,92.6 102.5,92.6 102.8,92.7 103,92.7 103.2,92.7 103.5,92.7 103.8,92.7 104,92.7 104.2,92.7 104.5,92.8 104.8,92.8 105,92.8 105.2,92.8 105.5,92.8 105.8,92.8 106,92.8 106.2,92.8 106.5,92.9 106.8,92.9 107,92.9 107.2,92.9 107.5,92.9 107.8,92.9 108,92.9 108.2,92.9 108.5,92.9 108.8,92.9 109,93 109.2,93 109.5,93 109.8,93 110,93 110.2,93 110.5,93 110.8,93 111,93 111.2,93 111.5,93 111.8,93 112,93 112.2,93 112.5,93 112.8,93 113,93 113.2,93 113.5,93 113.8,93 114,93 114.2,93 114.5,93 114.8,93 115,93 115.2,93 115.5,93 115.8,93 116,93 116.2,93 116.5,93 116.8,93 117,93 117.2,93 117.5,93 117.8,93 118,93 118.2,93 118.5,93 118.8,93 119,92.9 119.2,92.9 119.5,92.9 119.8,92.9 120,92.9 120.2,92.9 120.5,92.9 120.8,92.9 121,92.9 121.2,92.9 121.5,92.9 121.8,92.9 122,92.9 122.2,92.8 122.5,92.8 122.8,92.8 123,92.8 123.2,92.8 123.5,92.8 123.8,92.8 124,92.8 124.2,92.8 124.5,92.8 124.8,92.7 125,92.7 125.2,92.7 125.5,92.7 125.8,92.7 126,92.7 126.2,92.7 126.5,92.7 126.8,92.7 127,92.7 127.2,92.6 127.5,92.6 127.8,92.6 128,92.6 128.2,92.6 128.5,92.6 128.8,92.6 129,92.6 129.2,92.6 129.5,92.6 129.8,92.6 130,92.5 130.2,92.5 130.5,92.5 130.8,92.5 131,92.5 131.2,92.5 131.5,92.5 131.8,92.5 132,92.5 132.2,92.5 132.5,92.5 132.8,92.5 133,92.5 133.2,92.5 133.5,92.5 133.8,92.5 134,92.5 134.2,92.5 134.5,92.5 134.8,92.4 135,92.4 135.2,92.4 135.5,92.4 135.8,92.4 136,92.4 136.2,92.4 136.5,92.4 136.8,92.4 137,92.4 137.2,92.5 137.5,92.5 137.8,92.5 138,92.5 138.2,92.5 138.5,92.5 138.8,92.5 139,92.5 139.2,92.5 139.5,92.5 139.8,92.5 140,92.5 140.2,92.5 140.5,92.5 140.8,92.5 141,92.5 141.2,92.5 141.5,92.6 141.8,92.6 142,92.6 142.2,92.6 142.5,92.6 142.8,92.6 143,92.6 143.2,92.6 143.5,92.6 143.8,92.7 144,92.7 144.2,92.7 144.5,92.7 144.8,92.7 145,92.7 145.2,92.7 145.5,92.8 145.8,92.8 146,92.8 146.2,92.8 146.5,92.8 146.8,92.9 147,92.9 147.2,92.9 147.5,92.9 147.8,92.9 148,92.9 148.2,93 148.5,93 148.8,93 149,93 149.2,93.1 149.5,93.1 149.8,93.1 150,93.1 150.2,93.1 150.5,93.2 150.8,93.2 151,93.2 151.2,93.2 151.5,93.3 151.8,93.3 152,93.3 152.2,93.3 152.5,93.3 152.8,93.4 153,93.4 153.2,93.4 153.5,93.4 153.8,93.5 154,93.5 154.2,93.5 154.5,93.5 154.8,93.6 155,93.6 155.2,93.6 155.5,93.6 155.8,93.7 156,93.7 156.2,93.7 156.5,93.7 156.8,93.8 157,93.8 157.2,93.8 157.5,93.8 157.8,93.9 158,93.9 158.2,93.9 158.5,93.9 158.8,94 159,94 159.2,94 159.5,94 159.8,94 160,94.1 160.2,94.1 160.5,94.1 160.8,94.1 161,94.2 161.2,94.2 161.5,94.2 161.8,94.2 162,94.2 162.2,94.3 162.5,94.3 162.8,94.3 163,94.3 163.2,94.3 163.5,94.4 163.8,94.4 164,94.4 164.2,94.4 164.5,94.4 164.8,94.4 165,94.5 165.2,94.5 165.5,94.5 165.8,94.5 166,94.5 166.2,94.5 166.5,94.5 166.8,94.6 167,94.6 167.2,94.6 167.5,94.6 167.8,94.6 168,94.6 168.2,94.6 168.5,94.6 168.8,94.6 169,94.7 169.2,94.7 169.5,94.7 169.8,94.7 170,94.7 170.2,94.7 170.5,94.7 170.8,94.7 171,94.7 171.2,94.7 171.5,94.7 171.8,94.7 172,94.7 172.2,94.7 172.5,94.7 172.8,94.7 173,94.7 173.2,94.7 173.5,94.7 173.8,94.8 174,94.8 174.2,94.8 174.5,94.8 174.8,94.8 175,94.8 175.2,94.8 175.5,94.7 175.8,94.7 176,94.7 176.2,94.7 176.5,94.7 176.8,94.7 177,94.7 177.2,94.7 177.5,94.7 177.8,94.7 178,94.7 178.2,94.7 178.5,94.7 178.8,94.7 179,94.7 179.2,94.7 179.5,94.7 179.8,94.7 180,94.7 180.2,94.7 180.5,94.7 180.8,94.7 181,94.7 181.2,94.6 181.5,94.6 181.8,94.6 182,94.6 182.2,94.6 182.5,94.6 182.8,94.6 183,94.6 183.2,94.6 183.5,94.6 183.8,94.6 184,94.6 184.2,94.6 184.5,94.5 184.8,94.5 185,94.5 185.2,94.5 185.5,94.5 185.8,94.5 186,94.5 186.2,94.5 186.5,94.5 186.8,94.5 187,94.5 187.2,94.5 187.5,94.5 187.8,94.5 188,94.4 188.2,94.4 188.5,94.4 188.8,94.4 189,94.4 189.2,94.4 189.5,94.4 189.8,94.4 190,94.4 190.2,94.4 190.5,94.4 190.8,94.4 191,94.4 191.2,94.4 191.5,94.4 191.8,94.4 192,94.4 192.2,94.4 192.5,94.4 192.8,94.4 193,94.4 193.2,94.4 193.5,94.4 193.8,94.4 194,94.4 194.2,94.4 194.5,94.4 194.8,94.4 195,94.4 195.2,94.4 195.5,94.4 195.8,94.4 196,94.4 196.2,94.4 196.5,94.4 196.8,94.4 197,94.4 197.2,94.4 197.5,94.4 197.8,94.4 198,94.4 198.2,94.4 198.5,94.4 198.8,94.5 199,94.5 199.2,94.5 199.5,94.5 199.8,94.5 200,94.5 200.2,94.5 200.5,94.5 200.8,94.5 201,94.5 201.2,94.6 201.5,94.6 201.8,94.6 202,94.6 202.2,94.6 202.5,94.6 202.8,94.6 203,94.7 203.2,94.7 203.5,94.7 203.8,94.7 204,94.7 204.2,94.7 204.5,94.7 204.8,94.8 205,94.8 205.2,94.8 205.5,94.8 205.8,94.8 206,94.8 206.2,94.9 206.5,94.9 206.8,94.9 207,94.9 207.2,94.9 207.5,95 207.8,95 208,95 208.2,95 208.5,95 208.8,95.1 209,95.1 209.2,95.1 209.5,95.1 209.8,95.1 210,95.2 210.2,95.2 210.5,95.2 210.8,95.2 211,95.3 211.2,95.3 211.5,95.3 211.8,95.3 212,95.3 212.2,95.4 212.5,95.4 212.8,95.4 213,95.4 213.2,95.4 213.5,95.5 213.8,95.5 214,95.5 214.2,95.5 214.5,95.5 214.8,95.6 215,95.6 215.2,95.6 215.5,95.6 215.8,95.7 216,95.7 216.2,95.7 216.5,95.7 216.8,95.7 217,95.7 217.2,95.8 217.5,95.8 217.8,95.8 218,95.8 218.2,95.8 218.5,95.9 218.8,95.9 219,95.9 219.2,95.9 219.5,95.9 219.8,95.9 220,96 220.2,96 220.5,96 220.8,96 221,96 221.2,96 221.5,96 221.8,96.1 222,96.1 222.2,96.1 222.5,96.1 222.8,96.1 223,96.1 223.2,96.1 223.5,96.1 223.8,96.1 224,96.2 224.2,96.2 224.5,96.2 224.8,96.2 225,96.2 225.2,96.2 225.5,96.2 225.8,96.2 226,96.2 226.2,96.2 226.5,96.2 226.8,96.2 227,96.2 227.2,96.2 227.5,96.2 227.8,96.2 228,96.2 228.2,96.2 228.5,96.2 228.8,96.2 229,96.2 229.2,96.2 229.5,96.2 229.8,96.2 230,96.2 230.2,96.2 230.5,96.2 230.8,96.2 231,96.2 231.2,96.2 231.5,96.2 231.8,96.2 232,96.2 232.2,96.2 232.5,96.2 232.8,96.2 233,96.2 233.2,96.2 233.5,96.2 233.8,96.2 234,96.1 234.2,96.1 234.5,96.1 234.8,96.1 235,96.1 235.2,96.1 235.5,96.1 235.8,96.1 236,96.1 236.2,96.1 236.5,96 236.8,96 237,96 237.2,96 237.5,96 237.8,96 238,96 238.2,96 238.5,95.9 238.8,95.9 239,95.9 239.2,95.9 239.5,95.9 239.8,95.9 240,95.9 240.2,95.8 240.5,95.8 240.8,95.8 241,95.8 241.2,95.8 241.5,95.8 241.8,95.7 242,95.7 242.2,95.7 242.5,95.7 242.8,95.7 243,95.7 243.2,95.7 243.5,95.6 243.8,95.6 244,95.6 244.2,95.6 244.5,95.6 244.8,95.6 245,95.6 245.2,95.5 245.5,95.5 245.8,95.5 246,95.5 246.2,95.5 246.5,95.5 246.8,95.5 247,95.4 247.2,95.4 247.5,95.4 247.8,95.4 248,95.4 248.2,95.4 248.5,95.4 248.8,95.3 249,95.3 249.2,95.3 249.5,95.3 249.8,95.3 250,95.3 250.2,95.3 250.5,95.3 250.8,95.3 251,95.3 251.2,95.2 251.5,95.2 251.8,95.2 252,95.2 252.2,95.2 252.5,95.2 252.8,95.2 253,95.2 253.2,95.2 253.5,95.2 253.8,95.2 254,95.2 254.2,95.2 254.5,95.2 254.8,95.2 255,95.1 255.2,95.1 255.5,95.1 255.8,95.1 256,95.1 256.2,95.1 256.5,95.1 256.8,95.1 257,95.1 257.2,95.1 257.5,95.1 257.8,95.1 258,95.1 258.2,95.1 258.5,95.1 258.8,95.1 259,95.1 259.2,95.1 259.5,95.2 259.8,95.2 260,95.2 260.2,95.2 260.5,95.2 260.8,95.2 261,95.2 261.2,95.2 261.5,95.2 261.8,95.2 262,95.2 262.2,95.2 262.5,95.2 262.8,95.2 263,95.2 263.2,95.2 263.5,95.2 263.8,95.3 264,95.3 264.2,95.3 264.5,95.3 264.8,95.3 265,95.3 265.2,95.3 265.5,95.3 265.8,95.3 266,95.3 266.2,95.4 266.5,95.4 266.8,95.4 267,95.4 267.2,95.4 267.5,95.4 267.8,95.4 268,95.4 268.2,95.4 268.5,95.5 268.8,95.5 269,95.5 269.2,95.5 269.5,95.5 269.8,95.5 270,95.5 270.2,95.5 270.5,95.6 270.8,95.6 271,95.6 271.2,95.6 271.5,95.6 271.8,95.6 272,95.6 272.2,95.6 272.5,95.6 272.8,95.7 273,95.7 273.2,95.7 273.5,95.7 273.8,95.7 274,95.7 274.2,95.7 274.5,95.7 274.8,95.7 275,95.7 275.2,95.8 275.5,95.8 275.8,95.8 276,95.8 276.2,95.8 276.5,95.8 276.8,95.8 277,95.8 277.2,95.8 277.5,95.8 277.8,95.8 278,95.8 278.2,95.8 278.5,95.8 278.8,95.9 279,95.9 279.2,95.9 279.5,95.9 279.8,95.9 280,95.9 280.2,95.9 280.5,95.9 280.8,95.9 281,95.9 281.2,95.9 281.5,95.9 281.8,95.9 282,95.9 282.2,95.9 282.5,95.9 282.8,95.9 283,95.9 283.2,95.9 283.5,95.9 283.8,95.9 284,95.9 284.2,95.9 284.5,95.8 284.8,95.8 285,95.8 285.2,95.8 285.5,95.8 285.8,95.8 286,95.8 286.2,95.8 286.5,95.8 286.8,95.8 287,95.8 287.2,95.8 287.5,95.7 287.8,95.7 288,95.7 288.2,95.7 288.5,95.7 288.8,95.7 289,95.7 289.2,95.7 289.5,95.6 289.8,95.6 290,95.6 290.2,95.6 290.5,95.6 290.8,95.6 291,95.6 291.2,95.5 291.5,95.5 291.8,95.5 292,95.5 292.2,95.5 292.5,95.5 292.8,95.4 293,95.4 293.2,95.4 293.5,95.4 293.8,95.4 294,95.3 294.2,95.3 294.5,95.3 294.8,95.3 295,95.2 295.2,95.2 295.5,95.2 295.8,95.2 296,95.2 296.2,95.1 296.5,95.1 296.8,95.1 297,95.1 297.2,95 297.5,95 297.8,95 298,95 298.2,95 298.5,94.9 298.8,94.9 299,94.9 299.2,94.9 299.5,94.8 299.8,94.8 300,94.8 300.2,94.8 300.5,94.7 300.8,94.7 301,94.7 301.2,94.7 301.5,94.6 301.8,94.6 302,94.6 302.2,94.6 302.5,94.6 302.8,94.5 303,94.5 303.2,94.5 303.5,94.5 303.8,94.4 304,94.4 304.2,94.4 304.5,94.4 304.8,94.4 305,94.3 305.2,94.3 305.5,94.3 305.8,94.3 306,94.2 306.2,94.2 306.5,94.2 306.8,94.2 307,94.2 307.2,94.1 307.5,94.1 307.8,94.1 308,94.1 308.2,94.1 308.5,94.1 308.8,94 309,94 309.2,94 309.5,94 309.8,94 310,94 310.2,93.9 310.5,93.9 310.8,93.9 311,93.9 311.2,93.9 311.5,93.9 311.8,93.9 312,93.9 312.2,93.8 312.5,93.8 312.8,93.8 313,93.8 313.2,93.8 313.5,93.8 313.8,93.8 314,93.8 314.2,93.8 314.5,93.8 314.8,93.7 315,93.7 315.2,93.7 315.5,93.7 315.8,93.7 316,93.7 316.2,93.7 316.5,93.7 316.8,93.7 317,93.7 317.2,93.7 317.5,93.7 317.8,93.7 318,93.7 318.2,93.7 318.5,93.7 318.8,93.7 319,93.7 319.2,93.7 319.5,93.7 319.8,93.7 320,93.7 320.2,93.7 320.5,93.7 320.8,93.7 321,93.7 321.2,93.7 321.5,93.7 321.8,93.7 322,93.7 322.2,93.7 322.5,93.7 322.8,93.7 323,93.7 323.2,93.7 323.5,93.7 323.8,93.7 324,93.7 324.2,93.7 324.5,93.7 324.8,93.8 325,93.8 325.2,93.8 325.5,93.8 325.8,93.8 326,93.8 326.2,93.8 326.5,93.8 326.8,93.8 327,93.8 327.2,93.8 327.5,93.8 327.8,93.8 328,93.8 328.2,93.8 328.5,93.9 328.8,93.9 329,93.9 329.2,93.9 329.5,93.9 329.8,93.9 330,93.9 330.2,93.9 330.5,93.9 330.8,93.9 331,93.9 331.2,93.9 331.5,93.9 331.8,93.9 332,94 332.2,94 332.5,94 332.8,94 333,94 333.2,94 333.5,94 333.8,94 334,94 334.2,94 334.5,94 334.8,94 335,94 335.2,94 335.5,94 335.8,94 336,94 336.2,94 336.5,94 336.8,94 337,94 337.2,94 337.5,94 337.8,94 338,94 338.2,94 338.5,94 338.8,94 339,94 339.2,94 339.5,94 339.8,94 340,94" fill="none" stroke="#16232E" stroke-width="1.8" stroke-linecap="round" stroke-linejoin="round"/>
</svg>
