<!-- gerado por desenhar-figuras.py a partir de circuito 'simbolo:manutencao-mecanica/diagrama-tensao-deformacao'; não editar à mão -->
<svg xmlns="http://www.w3.org/2000/svg" viewBox="8.2 -4.4 292.8 219" width="300" height="224.4" font-family="Arial, Helvetica, sans-serif">
<rect x="8.2" y="-4.4" width="292.8" height="219" fill="#fff"/>
<polyline points="40,180 278,180" fill="none" stroke="#16232E" stroke-width="1.6" stroke-linecap="round" stroke-linejoin="round"/>
<polygon points="285,180 278,176.8 278,183.2" fill="#16232E" stroke="#16232E" stroke-width="1" stroke-linejoin="round"/>
<polyline points="40,180 40,22" fill="none" stroke="#16232E" stroke-width="1.6" stroke-linecap="round" stroke-linejoin="round"/>
<polygon points="40,15 36.9,22 43.1,22" fill="#16232E" stroke="#16232E" stroke-width="1" stroke-linejoin="round"/>
<text x="283" y="196" font-size="13" fill="#16232E" text-anchor="end" font-style="italic">ε</text>
<text x="32" y="25" font-size="13" fill="#16232E" text-anchor="end" font-style="italic">σ</text>
<polyline points="40,180 64,94 70,82 76,90 86,86 96,90 106,86 118,88 122.1,83.4 126.2,78.9 130.3,74.5 134.4,70.1 138.5,65.8 142.6,61.7 146.7,57.7 150.8,53.9 154.9,50.3 159,47 163.1,43.9 167.2,41.1 171.3,38.5 175.4,36.3 179.5,34.4 183.6,32.8 187.7,31.6 191.8,30.7 195.9,30.2 200,30 205,30.4 210,31.6 215,33.6 220,36.4 225,40 230,44.4 235,49.6 240,55.6 245,62.4 250,70" fill="none" stroke="#16232E" stroke-width="2.4" stroke-linecap="round" stroke-linejoin="round"/>
<circle cx="64" cy="94" r="3.5" fill="#16232E"/>
<text x="48" y="98" font-size="13" fill="#16232E" text-anchor="start" font-weight="bold">A</text>
<circle cx="70" cy="82" r="3.5" fill="#16232E"/>
<text x="66" y="73" font-size="13" fill="#16232E" text-anchor="start" font-weight="bold">B</text>
<circle cx="200" cy="30" r="3.5" fill="#16232E"/>
<text x="196" y="22" font-size="13" fill="#16232E" text-anchor="start" font-weight="bold">C</text>
<circle cx="250" cy="70" r="3.5" fill="#16232E"/>
<text x="258" y="74" font-size="13" fill="#16232E" text-anchor="start" font-weight="bold">D</text>
<text x="34" y="194" font-size="12" fill="#16232E" text-anchor="end" font-weight="bold">O</text>
</svg>
