<!-- gerado por desenhar-figuras.py a partir de circuito 'simbolo:manutencao-mecanica/micrometro-fim-tambor'; não editar à mão -->
<svg xmlns="http://www.w3.org/2000/svg" viewBox="0 -6 224 152" width="300" height="203.6" font-family="Arial, Helvetica, sans-serif">
<rect x="0" y="-6" width="224" height="152" fill="#fff"/>
<rect x="16" y="46" width="98" height="48" fill="#F4F7FA" stroke="#16232E" stroke-width="2"/>
<polyline points="16,70 108,70" fill="none" stroke="#16232E" stroke-width="1.4" stroke-linecap="round" stroke-linejoin="round"/>
<polyline points="30,70 30,59" fill="none" stroke="#16232E" stroke-width="1.2" stroke-linecap="round" stroke-linejoin="round"/>
<text x="30" y="56" font-size="11" fill="#16232E" text-anchor="middle">0</text>
<polyline points="42,70 42,63" fill="none" stroke="#16232E" stroke-width="1.2" stroke-linecap="round" stroke-linejoin="round"/>
<polyline points="54,70 54,63" fill="none" stroke="#16232E" stroke-width="1.2" stroke-linecap="round" stroke-linejoin="round"/>
<polyline points="66,70 66,63" fill="none" stroke="#16232E" stroke-width="1.2" stroke-linecap="round" stroke-linejoin="round"/>
<polyline points="78,70 78,63" fill="none" stroke="#16232E" stroke-width="1.2" stroke-linecap="round" stroke-linejoin="round"/>
<polyline points="90,70 90,59" fill="none" stroke="#16232E" stroke-width="1.2" stroke-linecap="round" stroke-linejoin="round"/>
<text x="90" y="56" font-size="11" fill="#16232E" text-anchor="middle">5</text>
<polyline points="102,70 102,63" fill="none" stroke="#16232E" stroke-width="1.2" stroke-linecap="round" stroke-linejoin="round"/>
<polyline points="36,70 36,77" fill="none" stroke="#16232E" stroke-width="1.2" stroke-linecap="round" stroke-linejoin="round"/>
<polyline points="48,70 48,77" fill="none" stroke="#16232E" stroke-width="1.2" stroke-linecap="round" stroke-linejoin="round"/>
<polyline points="60,70 60,77" fill="none" stroke="#16232E" stroke-width="1.2" stroke-linecap="round" stroke-linejoin="round"/>
<polyline points="72,70 72,77" fill="none" stroke="#16232E" stroke-width="1.2" stroke-linecap="round" stroke-linejoin="round"/>
<polyline points="84,70 84,77" fill="none" stroke="#16232E" stroke-width="1.2" stroke-linecap="round" stroke-linejoin="round"/>
<polyline points="96,70 96,77" fill="none" stroke="#16232E" stroke-width="1.2" stroke-linecap="round" stroke-linejoin="round"/>
<polyline points="108,70 108,77" fill="none" stroke="#16232E" stroke-width="1.2" stroke-linecap="round" stroke-linejoin="round"/>
<polygon points="108,18 126,10 208,10 208,130 126,130 108,122" fill="#fff" stroke="#16232E" stroke-width="2" stroke-linejoin="round"/>
<polyline points="126,10 126,130" fill="none" stroke="#16232E" stroke-width="1" stroke-linecap="round" stroke-linejoin="round"/>
<polyline points="108,115 116,115" fill="none" stroke="#16232E" stroke-width="1.2" stroke-linecap="round" stroke-linejoin="round"/>
<polyline points="108,106 116,106" fill="none" stroke="#16232E" stroke-width="1.2" stroke-linecap="round" stroke-linejoin="round"/>
<polyline points="108,97 116,97" fill="none" stroke="#16232E" stroke-width="1.2" stroke-linecap="round" stroke-linejoin="round"/>
<polyline points="108,88 122,88" fill="none" stroke="#16232E" stroke-width="1.2" stroke-linecap="round" stroke-linejoin="round"/>
<text x="130" y="92" font-size="10" fill="#16232E" text-anchor="start">45</text>
<polyline points="108,79 116,79" fill="none" stroke="#16232E" stroke-width="1.2" stroke-linecap="round" stroke-linejoin="round"/>
<polyline points="108,70 116,70" fill="none" stroke="#16232E" stroke-width="1.2" stroke-linecap="round" stroke-linejoin="round"/>
<polyline points="108,61 116,61" fill="none" stroke="#16232E" stroke-width="1.2" stroke-linecap="round" stroke-linejoin="round"/>
<polyline points="108,52 116,52" fill="none" stroke="#16232E" stroke-width="1.2" stroke-linecap="round" stroke-linejoin="round"/>
<polyline points="108,43 122,43" fill="none" stroke="#16232E" stroke-width="1.2" stroke-linecap="round" stroke-linejoin="round"/>
<text x="130" y="47" font-size="10" fill="#16232E" text-anchor="start">0</text>
<polyline points="108,34 116,34" fill="none" stroke="#16232E" stroke-width="1.2" stroke-linecap="round" stroke-linejoin="round"/>
<polyline points="108,25 116,25" fill="none" stroke="#16232E" stroke-width="1.2" stroke-linecap="round" stroke-linejoin="round"/>
</svg>
